<svg width="70" height="70" viewBox="0 0 70 70" fill="none" xmlns="http://www.w3.org/2000/svg">
<circle cx="35" cy="35" r="35" fill="#243E80"/>
<path d="M17.6945 35.1235C17.5452 34.7212 17.5452 34.2787 17.6945 33.8765C19.1488 30.3502 21.6174 27.3352 24.7873 25.2136C27.9572 23.092 31.6857 21.9594 35.5001 21.9594C39.3145 21.9594 43.043 23.092 46.2129 25.2136C49.3828 27.3352 51.8514 30.3502 53.3057 33.8765C53.455 34.2787 53.455 34.7212 53.3057 35.1235C51.8514 38.6497 49.3828 41.6648 46.2129 43.7864C43.043 45.908 39.3145 47.0405 35.5001 47.0405C31.6857 47.0405 27.9572 45.908 24.7873 43.7864C21.6174 41.6648 19.1488 38.6497 17.6945 35.1235Z" stroke="white" stroke-width="3.58333" stroke-linecap="round" stroke-linejoin="round"/>
<path d="M35.5001 39.875C38.4686 39.875 40.8751 37.4685 40.8751 34.5C40.8751 31.5314 38.4686 29.125 35.5001 29.125C32.5316 29.125 30.1251 31.5314 30.1251 34.5C30.1251 37.4685 32.5316 39.875 35.5001 39.875Z" stroke="white" stroke-width="3.58333" stroke-linecap="round" stroke-linejoin="round"/>
</svg>
